<svg width="120" height="100" viewBox="0 0 120 100" fill="none" xmlns="http://www.w3.org/2000/svg">
    <g id="triangleLogo">
        <g id="light">
            <path id="light1" opacity="0.7"
                d="M66.5 52.5981C68.5 51.4434 68.5 48.5566 66.5 47.4019L38 30.9474C36 29.7927 33.5 31.2361 33.5 33.5455V66.4545C33.5 68.7639 36 70.2073 38 69.0526L66.5 52.5981Z"
                fill="#43D2FF" />
        </g>
        <g id="dark">
            <path id="dark1" opacity="0.7"
                d="M45.5 52.5981C47.5 51.4434 47.5 48.5566 45.5 47.4019L17 30.9474C15 29.7927 12.5 31.2361 12.5 33.5455V66.4545C12.5 68.7639 15 70.2073 17 69.0526L45.5 52.5981Z"
                fill="#786EEA" />
            <path id="dark2" opacity="0.7"
                d="M66.5 52.5981C68.5 51.4434 68.5 48.5566 66.5 47.4019L38 30.9474C36 29.7927 33.5 31.2361 33.5 33.5455V66.4545C33.5 68.7639 36 70.2073 38 69.0526L66.5 52.5981Z"
                fill="#786EEA" />
        </g>
    </g>
</svg>